<svg id="Group_249" data-name="Group 249" xmlns="http://www.w3.org/2000/svg" xmlns:xlink="http://www.w3.org/1999/xlink" width="326.967" height="55.709" viewBox="0 0 326.967 55.709">
  <defs>
    <clipPath id="clip-path">
      <path id="Path_52" data-name="Path 52" d="M0-102.5H326.966v-55.709H0Z" transform="translate(0 158.205)" fill="none"/>
    </clipPath>
  </defs>
  <g id="Group_51" data-name="Group 51" clip-path="url(#clip-path)">
    <g id="Group_49" data-name="Group 49" transform="translate(159.505 46.066)">
      <path id="Path_50" data-name="Path 50" d="M-6.726,0A4,4,0,0,1-4.963.36,2.758,2.758,0,0,1-3.8,1.381a2.937,2.937,0,0,1,.418,1.6A2.945,2.945,0,0,1-3.8,4.57,2.745,2.745,0,0,1-4.963,5.6a4.008,4.008,0,0,1-1.763.36H-8.841V9.5h-1.541V0Zm-.245,4.634a2.233,2.233,0,0,0,1.5-.425,1.552,1.552,0,0,0,.482-1.231,1.569,1.569,0,0,0-.482-1.244,2.233,2.233,0,0,0-1.5-.425H-8.841V4.634Z" transform="translate(10.382)" fill="#0d254e"/>
    </g>
    <g id="Group_50" data-name="Group 50" transform="translate(167.681 45.922)">
      <path id="Path_51" data-name="Path 51" d="M-8.236,0a4.653,4.653,0,0,1,2.39.589A3.949,3.949,0,0,1-4.292,2.273a5.81,5.81,0,0,1,.547,2.62,5.8,5.8,0,0,1-.547,2.619A3.942,3.942,0,0,1-5.846,9.2a4.647,4.647,0,0,1-2.39.59A4.615,4.615,0,0,1-10.61,9.2a3.94,3.94,0,0,1-1.555-1.684,5.8,5.8,0,0,1-.547-2.619,5.806,5.806,0,0,1,.547-2.62A3.947,3.947,0,0,1-10.61.589,4.622,4.622,0,0,1-8.236,0m0,1.338a2.746,2.746,0,0,0-1.533.417,2.671,2.671,0,0,0-.986,1.209A4.814,4.814,0,0,0-11.1,4.893a4.823,4.823,0,0,0,.346,1.921,2.663,2.663,0,0,0,.986,1.217,2.743,2.743,0,0,0,1.533.417,2.771,2.771,0,0,0,1.548-.417A2.667,2.667,0,0,0-5.7,6.814a4.823,4.823,0,0,0,.346-1.921A4.814,4.814,0,0,0-5.7,2.965a2.676,2.676,0,0,0-.986-1.209,2.774,2.774,0,0,0-1.548-.417" transform="translate(12.712)" fill="#0d254e"/>
    </g>
  </g>
  <g id="Group_52" data-name="Group 52" transform="translate(177.612 46.066)">
    <path id="Path_53" data-name="Path 53" d="M-21.369,0l-2.116,8.175L-25.572,0h-1.583l-2.073,8.161L-31.358,0h-1.626l2.792,9.5h1.828l1.5-5.7.475-2.188h.015L-25.9,3.8l1.511,5.7h1.813L-19.8,0Z" transform="translate(32.984)" fill="#0d254e"/>
  </g>
  <g id="Group_53" data-name="Group 53" transform="translate(192.293 46.066)">
    <path id="Path_54" data-name="Path 54" d="M0,0V9.5H7.082V8.175H1.541V5.354H5.714v-1.3H1.541V1.324H6.88V0Z" fill="#0d254e"/>
  </g>
  <g id="Group_55" data-name="Group 55" clip-path="url(#clip-path)">
    <g id="Group_54" data-name="Group 54" transform="translate(201.13 46.066)">
      <path id="Path_55" data-name="Path 55" d="M-7.123,0A3.625,3.625,0,0,1-4.7.763a2.559,2.559,0,0,1,.9,2.058,2.5,2.5,0,0,1-.9,2.065,3.744,3.744,0,0,1-2.425.727l-.144.087h-2.2V9.5h-1.525V0Zm-.115,4.418A2.12,2.12,0,0,0-5.85,4.036,1.445,1.445,0,0,0-5.4,2.864,1.45,1.45,0,0,0-5.85,1.7,2.1,2.1,0,0,0-7.238,1.31H-9.47V4.418Zm.907.317L-3.237,9.5h-1.77L-7.656,5.34Z" transform="translate(10.995)" fill="#0d254e"/>
    </g>
  </g>
  <g id="Group_56" data-name="Group 56" transform="translate(210.485 46.066)">
    <path id="Path_57" data-name="Path 57" d="M0,0V9.5H7.081V8.175H1.541V5.354H5.714v-1.3H1.541V1.324H6.88V0Z" fill="#0d254e"/>
  </g>
  <g id="Group_58" data-name="Group 58" clip-path="url(#clip-path)">
    <g id="Group_57" data-name="Group 57" transform="translate(219.322 46.066)">
      <path id="Path_58" data-name="Path 58" d="M-6.171,0A4.734,4.734,0,0,1-2.7,1.23,4.731,4.731,0,0,1-1.45,4.75,4.73,4.73,0,0,1-2.7,8.268,4.732,4.732,0,0,1-6.171,9.5H-9.525V0Zm0,8.189a2.926,2.926,0,0,0,2.31-.9,3.7,3.7,0,0,0,.8-2.54,3.7,3.7,0,0,0-.8-2.541,2.929,2.929,0,0,0-2.31-.9H-7.984V8.189Z" transform="translate(9.525)" fill="#0d254e"/>
    </g>
  </g>
  <g id="Group_59" data-name="Group 59" transform="translate(233.729 46.066)">
    <path id="Path_60" data-name="Path 60" d="M0,0V9.5H1.54V5.412H5.714V4.087H1.54V1.324H6.866V0Z" fill="#0d254e"/>
  </g>
  <g id="Group_62" data-name="Group 62" clip-path="url(#clip-path)">
    <g id="Group_60" data-name="Group 60" transform="translate(242.207 46.066)">
      <path id="Path_61" data-name="Path 61" d="M-7.123,0A3.625,3.625,0,0,1-4.7.763a2.559,2.559,0,0,1,.9,2.058,2.5,2.5,0,0,1-.9,2.065,3.744,3.744,0,0,1-2.425.727l-.144.087h-2.2V9.5h-1.525V0Zm-.115,4.418A2.12,2.12,0,0,0-5.85,4.036,1.446,1.446,0,0,0-5.4,2.864,1.45,1.45,0,0,0-5.85,1.7,2.1,2.1,0,0,0-7.238,1.31H-9.47V4.418Zm.907.317L-3.237,9.5h-1.77L-7.656,5.34Z" transform="translate(10.995)" fill="#0d254e"/>
    </g>
    <g id="Group_61" data-name="Group 61" transform="translate(251.03 45.922)">
      <path id="Path_62" data-name="Path 62" d="M-8.236,0a4.653,4.653,0,0,1,2.39.589A3.951,3.951,0,0,1-4.292,2.273a5.806,5.806,0,0,1,.547,2.62,5.8,5.8,0,0,1-.547,2.619A3.944,3.944,0,0,1-5.846,9.2a4.647,4.647,0,0,1-2.39.59A4.615,4.615,0,0,1-10.61,9.2a3.94,3.94,0,0,1-1.555-1.684,5.8,5.8,0,0,1-.547-2.619,5.806,5.806,0,0,1,.547-2.62A3.947,3.947,0,0,1-10.61.589,4.622,4.622,0,0,1-8.236,0m0,1.338a2.746,2.746,0,0,0-1.533.417,2.671,2.671,0,0,0-.986,1.209A4.814,4.814,0,0,0-11.1,4.893a4.823,4.823,0,0,0,.346,1.921,2.663,2.663,0,0,0,.986,1.217,2.743,2.743,0,0,0,1.533.417,2.771,2.771,0,0,0,1.548-.417A2.667,2.667,0,0,0-5.7,6.814a4.817,4.817,0,0,0,.346-1.921A4.807,4.807,0,0,0-5.7,2.965a2.676,2.676,0,0,0-.986-1.209,2.774,2.774,0,0,0-1.548-.417" transform="translate(12.712)" fill="#0d254e"/>
    </g>
  </g>
  <g id="Group_63" data-name="Group 63" transform="translate(261.969 46.066)">
    <path id="Path_64" data-name="Path 64" d="M-13.743,0l-1.9,5.5-.676,2.26h-.029L-17.01,5.5-18.924,0h-2.289V9.5h1.425V4l-.115-2.62h.014L-17,9.5h1.281l2.893-8.118h.014L-12.922,4V9.5H-11.5V0Z" transform="translate(21.213)" fill="#0d254e"/>
  </g>
  <g id="Group_64" data-name="Group 64" transform="translate(277.542 46.066)">
    <path id="Path_65" data-name="Path 65" d="M-21.37,0l-2.116,8.175L-25.573,0h-1.583l-2.073,8.161L-31.359,0h-1.626l2.792,9.5h1.828l1.5-5.7.475-2.188h.015L-25.9,3.8l1.511,5.7h1.813L-19.8,0Z" transform="translate(32.985)" fill="#0d254e"/>
  </g>
  <path id="Path_66" data-name="Path 66" d="M829.865-17.886h1.541v-9.5h-1.541Z" transform="translate(-537.643 73.451)" fill="#0d254e"/>
  <g id="Group_65" data-name="Group 65" transform="translate(295.288 46.066)">
    <path id="Path_67" data-name="Path 67" d="M0,0V1.324H3.253V9.5h1.54V1.324H8.046V0Z" fill="#0d254e"/>
  </g>
  <g id="Group_66" data-name="Group 66" transform="translate(304.859 46.066)">
    <path id="Path_68" data-name="Path 68" d="M-11.466,0V4.03h-4.692V0H-17.7V9.5h1.54V5.354h4.692V9.5h1.555V0Z" transform="translate(17.698)" fill="#0d254e"/>
  </g>
  <path id="Path_69" data-name="Path 69" d="M894.936-17.886h1.54v-9.5h-1.54Z" transform="translate(-579.8 73.451)" fill="#0d254e"/>
  <g id="Group_67" data-name="Group 67" transform="translate(319.18 46.066)">
    <path id="Path_70" data-name="Path 70" d="M-11.705,0V6.131l.058,1.555h-.015L-12.6,5.973-16.254,0h-1.813V9.5h1.41V3.367l-.057-1.54h.014l.921,1.684,3.67,5.987h1.828V0Z" transform="translate(18.067)" fill="#0d254e"/>
  </g>
  <g id="Group_81" data-name="Group 81" clip-path="url(#clip-path)">
    <g id="Group_68" data-name="Group 68" transform="translate(0 0.583)">
      <path id="Path_71" data-name="Path 71" d="M0-1.221a.663.663,0,0,1,.663-.663H8.785c7.087,0,11.6,3.737,11.6,10.241S15.872,18.6,8.785,18.6H4.077v12.83a.663.663,0,0,1-.663.663H.663A.663.663,0,0,1,0,31.428ZM8.542,14.716c4.611,0,7.766-2.038,7.766-6.359S13.154,2,8.542,2H4.077V14.716Z" transform="translate(0 1.884)" fill="#0d254e"/>
    </g>
    <g id="Group_69" data-name="Group 69" transform="translate(23.689 11.552)">
      <path id="Path_72" data-name="Path 72" d="M-24.468-1.072l-1.5,3.689a5.69,5.69,0,0,0-2.572-.485c-3.544,0-5.145,3.785-5.145,3.785V20.689a.663.663,0,0,1-.663.663H-37.1a.663.663,0,0,1-.663-.663V-.408a.664.664,0,0,1,.663-.663h3.123V2.375s1.99-4.029,6.261-4.029a9.372,9.372,0,0,1,3.252.582" transform="translate(37.767 1.654)" fill="#0d254e"/>
    </g>
    <g id="Group_70" data-name="Group 70" transform="translate(37.135 11.552)">
      <path id="Path_73" data-name="Path 73" d="M-42.507-21.7A11.482,11.482,0,0,1-54.058-9.907,11.482,11.482,0,0,1-65.61-21.7,11.483,11.483,0,0,1-54.058-33.495,11.483,11.483,0,0,1-42.507-21.7m-4.077,0c0-4.417-2.96-8.009-7.474-8.009s-7.475,3.592-7.475,8.009,2.961,8.008,7.475,8.008,7.474-3.592,7.474-8.008" transform="translate(65.61 33.495)" fill="#0d254e"/>
    </g>
    <g id="Group_71" data-name="Group 71" transform="translate(62.667 11.552)">
      <path id="Path_74" data-name="Path 74" d="M-38.131-35.452A12.09,12.09,0,0,1-47.4-31.133,11.7,11.7,0,0,1-58.822-41.966,11.562,11.562,0,0,1-47.3-54.721a12.018,12.018,0,0,1,8.931,4.029l-2.29,2.047a.657.657,0,0,1-.9-.011A8.375,8.375,0,0,0-47.3-50.935c-4.514,0-7.475,3.592-7.475,8.009s2.961,8.008,7.475,8.008A8.277,8.277,0,0,0-41.2-37.582a.659.659,0,0,1,.96-.015Z" transform="translate(58.857 54.721)" fill="#0d254e"/>
    </g>
    <g id="Group_72" data-name="Group 72" transform="translate(84.996 11.552)">
      <path id="Path_75" data-name="Path 75" d="M-40.72-21.968a12.7,12.7,0,0,1-.049,1.31h-18.1c.243,3.4,3.495,6.553,7.717,6.553a8.416,8.416,0,0,0,4.5-1.292,3.832,3.832,0,0,1,4.78.618l.041.043a12.5,12.5,0,0,1-9.319,4.416,11.457,11.457,0,0,1-11.7-11.794c0-6.553,4.465-11.795,11.212-11.795,6.261,0,10.921,4.708,10.921,11.94m-3.98-2.087a6.751,6.751,0,0,0-6.941-6.067,6.954,6.954,0,0,0-7.135,6.067Z" transform="translate(62.853 33.908)" fill="#0d254e"/>
    </g>
    <g id="Group_73" data-name="Group 73" transform="translate(109.848 11.552)">
      <path id="Path_76" data-name="Path 76" d="M-5.18-29.915a8.65,8.65,0,0,0,6.8,3.64c2.281,0,4.853-.971,4.853-2.766,0-1.942-1.65-2.912-5.1-3.592-4.806-.971-8.2-2.864-8.2-7.087,0-3.252,3.252-6.455,8.252-6.455a11.657,11.657,0,0,1,8.3,3.4L7.052-40.01a8.233,8.233,0,0,0-5.63-2.475c-2.864,0-4.272,1.408-4.272,2.863,0,1.7,1.748,2.622,5.436,3.4C6.858-35.3,10.5-33.7,10.5-29.138c0,4.319-4.563,6.552-8.882,6.552a12.289,12.289,0,0,1-9.611-4.708Z" transform="translate(7.995 46.174)" fill="#0d254e"/>
    </g>
    <g id="Group_74" data-name="Group 74" transform="translate(131.643 11.552)">
      <path id="Path_77" data-name="Path 77" d="M-5.18-29.915a8.65,8.65,0,0,0,6.8,3.64c2.281,0,4.853-.971,4.853-2.766,0-1.942-1.65-2.912-5.1-3.592-4.805-.971-8.2-2.864-8.2-7.087,0-3.252,3.252-6.455,8.252-6.455a11.657,11.657,0,0,1,8.3,3.4L7.052-40.01a8.233,8.233,0,0,0-5.63-2.475c-2.864,0-4.272,1.408-4.272,2.863,0,1.7,1.748,2.622,5.436,3.4C6.858-35.3,10.5-33.7,10.5-29.138c0,4.319-4.563,6.552-8.882,6.552A12.29,12.29,0,0,1-8-27.294Z" transform="translate(7.995 46.174)" fill="#0d254e"/>
    </g>
    <g id="Group_75" data-name="Group 75" transform="translate(154.118 0)">
      <path id="Path_78" data-name="Path 78" d="M-61.8-32.325c0,9.8-6.989,17.57-16.794,17.57s-16.794-7.766-16.794-17.57S-88.395-49.9-78.59-49.9-61.8-42.129-61.8-32.325m-4.369,0c0-7.232-5-13.687-12.425-13.687s-12.425,6.455-12.425,13.687,5,13.688,12.425,13.688,12.425-6.456,12.425-13.688" transform="translate(95.384 49.895)" fill="#0d254e"/>
    </g>
    <g id="Group_76" data-name="Group 76" transform="translate(191.98 11.552)">
      <path id="Path_79" data-name="Path 79" d="M-35.184-15.805V-2.053a.663.663,0,0,1-.663.663H-38.6a.663.663,0,0,1-.663-.663V-15.125c0-3.835-2.378-5.485-5.388-5.485-3.64,0-5.581,3.785-5.581,3.785V-2.053a.663.663,0,0,1-.663.663h-2.751a.663.663,0,0,1-.663-.663v-21.1a.663.663,0,0,1,.663-.663h3.123v3.155A7.976,7.976,0,0,1-43.63-24.4a8.162,8.162,0,0,1,8.446,8.591" transform="translate(54.308 24.396)" fill="#0d254e"/>
    </g>
    <g id="Group_77" data-name="Group 77" transform="translate(214.745 11.552)">
      <path id="Path_80" data-name="Path 80" d="M-40.722-21.968a12.614,12.614,0,0,1-.049,1.31h-18.1c.243,3.4,3.495,6.553,7.717,6.553a8.652,8.652,0,0,0,6.3-2.767.658.658,0,0,1,.958,0l2.063,2.141a12.5,12.5,0,0,1-9.319,4.416,11.457,11.457,0,0,1-11.7-11.794c0-6.553,4.465-11.795,11.212-11.795,6.262,0,10.921,4.708,10.921,11.94m-3.98-2.087a6.751,6.751,0,0,0-6.941-6.067,6.954,6.954,0,0,0-7.135,6.067Z" transform="translate(62.855 33.908)" fill="#0d254e"/>
    </g>
    <g id="Group_78" data-name="Group 78" transform="translate(247.21 0)">
      <path id="Path_81" data-name="Path 81" d="M-21.79-10a6.227,6.227,0,0,0-5.776,4.126l-5.048-2.379A11.607,11.607,0,0,1-21.79-15.437c6.213,0,10.969,3.931,10.969,10.192A8.555,8.555,0,0,1-14.995,1.89s5,1.262,5,7.766C-10,15.821-15.14,19.7-21.741,19.7c-9.465,0-11.892-7.863-11.892-7.863l4.757-2.766a7.481,7.481,0,0,0,7.135,5.193c3.689,0,5.921-1.99,5.921-4.611,0-3.592-3.107-4.8-6.164-4.8h-1.763a.664.664,0,0,1-.663-.663V.175a.663.663,0,0,1,.663-.663h1.181c3.543,0,5.873-1.31,5.873-4.757A4.763,4.763,0,0,0-21.79-10" transform="translate(33.633 15.437)" fill="#5bc6db"/>
    </g>
    <g id="Group_79" data-name="Group 79" transform="translate(274.587 1.187)">
      <path id="Path_82" data-name="Path 82" d="M-20.45-20.408a6.166,6.166,0,0,1,1.165-.145,11.24,11.24,0,0,1,11.5,11.5,11.61,11.61,0,0,1-11.891,11.5A11.592,11.592,0,0,1-31.565-8.953a15.006,15.006,0,0,1,1.893-7.037c.344-.625,4.677-7.778,7.716-12.788a5.654,5.654,0,0,1,7.816-1.871h0ZM-25.692-9.05a5.824,5.824,0,0,0,6.018,6.067A5.824,5.824,0,0,0-13.655-9.05a5.825,5.825,0,0,0-6.019-6.067A5.824,5.824,0,0,0-25.692-9.05" transform="translate(31.565 31.5)" fill="#5bc6db"/>
    </g>
    <g id="Group_80" data-name="Group 80" transform="translate(302.838 0.583)">
      <path id="Path_83" data-name="Path 83" d="M-21.879-63.58A12.8,12.8,0,0,1-33.77-71.443l4.854-2.766s1.747,5.194,7.038,5.194a5.933,5.933,0,0,0,6.213-6.31c0-3.64-2.184-6.31-7.232-6.31-4.708,0-9.125,3.689-9.125,3.689V-98.138h21.356A5.533,5.533,0,0,1-16.2-92.605h-10v6.65a10.958,10.958,0,0,1,4.805-1.019c6.019,0,11.6,3.689,11.6,11.649S-16.005-63.58-21.879-63.58" transform="translate(33.77 98.138)" fill="#5bc6db"/>
    </g>
  </g>
</svg>
